<svg width="12" height="15" viewBox="0 0 12 15" fill="none" xmlns="http://www.w3.org/2000/svg">
    <path d="M0.403322 1.00973C0.658109 0.689976 1.00469 0.510714 1.36576 0.511846H1.36666L10.639 0.519062C11.3908 0.52076 11.9997 1.2828 12 2.22254L11.9962 10.0421C11.9956 10.9819 11.3861 11.7433 10.6343 11.7433H10.6334L7.58103 11.7409L6.344 14.2967C6.34309 14.2984 6.3423 14.3001 6.34151 14.3018C6.27529 14.4323 6.16018 14.5112 6.03646 14.5109H6.03624C5.91252 14.5112 5.79741 14.432 5.73131 14.3013C5.73052 14.2997 5.72961 14.298 5.72882 14.2963L4.49428 11.7385L1.36101 11.7361C0.608871 11.7356 -0.000533104 10.973 3.33786e-05 10.0328L0.00388145 2.2132C0.00308895 1.76144 0.146952 1.32807 0.403322 1.00973ZM1.36123 11.2291L4.60894 11.2315C4.68002 11.2316 4.74578 11.278 4.78245 11.354L6.03658 13.9522L7.29319 11.356C7.32998 11.2801 7.39574 11.2337 7.46682 11.2337L10.6335 11.2361H10.634C11.162 11.2361 11.5899 10.7015 11.5903 10.0417L11.5942 2.22212C11.5939 1.56223 11.1665 1.02728 10.6386 1.02614L1.36621 1.01879H1.36565C0.837964 1.01964 0.410339 1.55388 0.409434 2.21334L0.405473 10.0329C0.405812 10.6928 0.833323 11.2279 1.36123 11.2291Z" fill="black"/>
    <path d="M2.30571 7.61987H9.69463C9.80668 7.61987 9.89746 7.73334 9.89746 7.87341C9.89746 8.01348 9.80668 8.12695 9.69463 8.12695H2.30571C2.19366 8.12695 2.10288 8.01348 2.10288 7.87341C2.10288 7.73334 2.19366 7.61987 2.30571 7.61987Z" fill="black"/>
    <path d="M2.30571 5.80896H9.69463C9.80668 5.80896 9.89746 5.92243 9.89746 6.0625C9.89746 6.20257 9.80668 6.31604 9.69463 6.31604H2.30571C2.19366 6.31604 2.10288 6.20257 2.10288 6.0625C2.10288 5.92243 2.19366 5.80896 2.30571 5.80896Z" fill="black"/>
    <path d="M2.30571 3.99792H9.69463C9.80668 3.99792 9.89746 4.1114 9.89746 4.25147C9.89746 4.39154 9.80668 4.50501 9.69463 4.50501H2.30571C2.19366 4.50501 2.10288 4.39154 2.10288 4.25147C2.10288 4.1114 2.19366 3.99792 2.30571 3.99792Z" fill="black"/>
    </svg>
    