<svg width="24" height="27" viewBox="0 0 24 27" fill="none" xmlns="http://www.w3.org/2000/svg">
<path d="M22.1667 20.8746C23.3125 19.3396 24 17.4139 24 15.3125C24 10.7812 20.8125 7.0373 16.6584 6.36895C15.3459 3.10645 12.2625 0.8125 8.6667 0.8125C3.8792 0.8125 3.64904e-05 4.86797 3.64904e-05 9.875C3.64904e-05 11.9707 0.687536 13.8965 1.83337 15.4371C1.19587 17.176 0.279203 18.524 0.262536 18.5467C3.64979e-05 18.9262 -0.0749635 19.4813 0.0792031 19.9627C0.229203 20.4441 0.579203 20.7557 0.962536 20.7557C3.1917 20.7557 4.9917 19.6115 6.1792 18.558C6.56254 18.677 6.95837 18.7676 7.36253 18.8355C8.67087 22.0867 11.7417 24.375 15.3334 24.375C16.2 24.375 17.0334 24.2391 17.825 23.9898C19.0125 25.0377 20.8084 26.1875 23.0417 26.1875C23.425 26.1875 23.7709 25.876 23.925 25.3945C24.075 24.9131 24.0042 24.358 23.7417 23.9785C23.725 23.9615 22.8042 22.6135 22.1667 20.8746ZM5.80004 15.6467L5.08754 16.2754C4.50004 16.7908 3.90004 17.1986 3.2917 17.4875C3.4042 17.2213 3.5167 16.9381 3.62504 16.6492L4.27087 14.8877L3.23754 13.5C2.67504 12.741 2.00004 11.5006 2.00004 9.875C2.00004 6.43691 5.0542 3.53125 8.6667 3.53125C12.2792 3.53125 15.3334 6.43691 15.3334 9.875C15.3334 13.3131 12.2792 16.2188 8.6667 16.2188C7.9792 16.2188 7.2917 16.1111 6.62504 15.9016L5.80004 15.6467ZM20.7625 18.9375L19.7334 20.3195L20.3792 22.0811C20.4875 22.3699 20.6 22.6531 20.7125 22.9193C20.1042 22.6305 19.5042 22.2227 18.9167 21.7072L18.2042 21.0785L17.375 21.3391C16.7084 21.5486 16.0209 21.6562 15.3334 21.6562C13.0834 21.6562 11.075 20.5178 9.86253 18.8412C14.0834 18.2295 17.3334 14.4572 17.3334 9.875C17.3334 9.68242 17.3167 9.49551 17.3042 9.30859C19.9875 10.1299 22 12.5258 22 15.3125C22 16.9381 21.325 18.1785 20.7625 18.9375Z" fill="black"/>
</svg>
