<svg width="18" height="19" viewBox="0 0 18 19" fill="none" xmlns="http://www.w3.org/2000/svg">
<path d="M12.4118 9.5L17.529 4.61377C18.157 4.01416 18.157 3.04199 17.529 2.44189L16.3918 1.35596C15.7638 0.756348 14.7457 0.756348 14.1172 1.35596L9 6.24219L3.88278 1.35596C3.25483 0.756348 2.2367 0.756348 1.60824 1.35596L0.470966 2.44189C-0.156989 3.0415 -0.156989 4.01367 0.470966 4.61377L5.58818 9.5L0.470966 14.3862C-0.156989 14.9858 -0.156989 15.958 0.470966 16.5581L1.60824 17.644C2.23619 18.2437 3.25483 18.2437 3.88278 17.644L9 12.7578L14.1172 17.644C14.7452 18.2437 15.7638 18.2437 16.3918 17.644L17.529 16.5581C18.157 15.9585 18.157 14.9863 17.529 14.3862L12.4118 9.5Z" fill="black"/>
</svg>
