<svg width="24" height="27" viewBox="0 0 24 27" fill="none" xmlns="http://www.w3.org/2000/svg">
    <path d="M22.1665 20.8746C23.3123 19.3396 23.9998 17.4139 23.9998 15.3125C23.9998 10.7812 20.8123 7.03731 16.6581 6.36895C15.3456 3.10645 12.2623 0.8125 8.66646 0.8125C3.87896 0.8125 -0.00020765 4.86797 -0.00020765 9.875C-0.00020765 11.9707 0.687292 13.8965 1.83313 15.4371C1.19563 17.176 0.278959 18.524 0.262292 18.5467C-0.000207643 18.9262 -0.0752076 19.4813 0.078959 19.9627C0.228959 20.4441 0.578959 20.7557 0.962292 20.7557C3.19146 20.7557 4.99146 19.6115 6.17896 18.558C6.56229 18.677 6.95812 18.7676 7.36229 18.8355C8.67062 22.0867 11.7415 24.375 15.3331 24.375C16.1998 24.375 17.0331 24.2391 17.8248 23.9898C19.0123 25.0377 20.8081 26.1875 23.0415 26.1875C23.4248 26.1875 23.7706 25.876 23.9248 25.3945C24.0748 24.9131 24.004 24.358 23.7415 23.9785C23.7248 23.9615 22.804 22.6135 22.1665 20.8746V20.8746ZM5.79979 15.6467L5.08729 16.2754C4.49979 16.7908 3.89979 17.1986 3.29146 17.4875C3.40396 17.2213 3.51646 16.9381 3.62479 16.6492L4.27063 14.8877L3.23729 13.5C2.67479 12.741 1.99979 11.5006 1.99979 9.875C1.99979 6.43691 5.05396 3.53125 8.66646 3.53125C12.279 3.53125 15.3331 6.43691 15.3331 9.875C15.3331 13.3131 12.279 16.2188 8.66646 16.2188C7.97896 16.2188 7.29146 16.1111 6.62479 15.9016L5.79979 15.6467ZM20.7623 18.9375L19.7331 20.3195L20.379 22.0811C20.4873 22.3699 20.5998 22.6531 20.7123 22.9193C20.104 22.6305 19.504 22.2227 18.9165 21.7072L18.204 21.0785L17.3748 21.3391C16.7081 21.5486 16.0206 21.6562 15.3331 21.6562C13.0831 21.6562 11.0748 20.5178 9.86229 18.8412C14.0831 18.2295 17.3331 14.4572 17.3331 9.875C17.3331 9.68242 17.3165 9.49551 17.304 9.30859C19.9873 10.1299 21.9998 12.5258 21.9998 15.3125C21.9998 16.9381 21.3248 18.1785 20.7623 18.9375Z" fill="black"/>
    </svg>
    