<svg width="12" height="16" viewBox="0 0 12 16" fill="none" xmlns="http://www.w3.org/2000/svg">
<path d="M1.5 6H2V4C2 1.794 3.794 0 6 0C8.206 0 10 1.794 10 4V6H10.5C11.3267 6 12 6.67267 12 7.5V14.5C12 15.3273 11.3267 16 10.5 16H1.5C0.673333 16 0 15.3273 0 14.5V7.5C0 6.67267 0.673333 6 1.5 6ZM8.66667 4C8.66667 2.52933 7.47067 1.33333 6 1.33333C4.52933 1.33333 3.33333 2.52933 3.33333 4V6H8.66667V4ZM5.33333 11.148V12.6667C5.33333 13.0347 5.63133 13.3333 6 13.3333C6.36867 13.3333 6.66667 13.0347 6.66667 12.6667V11.148C7.06333 10.9167 7.33333 10.4913 7.33333 10C7.33333 9.26467 6.73533 8.66667 6 8.66667C5.26467 8.66667 4.66667 9.26467 4.66667 10C4.66667 10.4913 4.93667 10.9167 5.33333 11.148Z" fill="black"/>
</svg>
