<svg width="31" height="21" viewBox="0 0 31 21" fill="none" xmlns="http://www.w3.org/2000/svg">
<path d="M1.29167 0H24.9722C26.0948 0 27.052 0.705428 27.4074 1.6875H29.7083C30.4217 1.6875 31 2.25413 31 2.95312V17.2969C31 18.9278 29.6506 20.25 27.9861 20.25H1.29167C0.578289 20.25 0 19.6834 0 18.9844V1.26562C0 0.566631 0.578289 0 1.29167 0ZM28.4167 17.2969V4.21875H27.5556V17.2969C27.5556 17.5295 27.7487 17.7188 27.9861 17.7188C28.2235 17.7188 28.4167 17.5295 28.4167 17.2969ZM2.58333 17.7188H25.0033C24.9832 17.5809 24.9722 17.4402 24.9722 17.2969V2.53125H2.58333V17.7188ZM21.7431 11.3906H14.4236C14.0669 11.3906 13.7778 11.1073 13.7778 10.7578V5.69531C13.7778 5.34584 14.0669 5.0625 14.4236 5.0625H21.7431C22.0997 5.0625 22.3889 5.34584 22.3889 5.69531V10.7578C22.3889 11.1073 22.0997 11.3906 21.7431 11.3906ZM20.2361 7.17188H15.9306V9.28125H20.2361V7.17188ZM22.3889 14.5547V13.2891C22.3889 12.9396 22.0997 12.6562 21.7431 12.6562H14.4236C14.0669 12.6562 13.7778 12.9396 13.7778 13.2891V14.5547C13.7778 14.9042 14.0669 15.1875 14.4236 15.1875H21.7431C22.0997 15.1875 22.3889 14.9042 22.3889 14.5547ZM12.0556 14.5547V13.2891C12.0556 12.9396 11.7664 12.6562 11.4097 12.6562H5.8125C5.45584 12.6562 5.16667 12.9396 5.16667 13.2891V14.5547C5.16667 14.9042 5.45584 15.1875 5.8125 15.1875H11.4097C11.7664 15.1875 12.0556 14.9042 12.0556 14.5547ZM12.0556 6.96094V5.69531C12.0556 5.34584 11.7664 5.0625 11.4097 5.0625H5.8125C5.45584 5.0625 5.16667 5.34584 5.16667 5.69531V6.96094C5.16667 7.31041 5.45584 7.59375 5.8125 7.59375H11.4097C11.7664 7.59375 12.0556 7.31041 12.0556 6.96094ZM12.0556 10.7578V9.49219C12.0556 9.14272 11.7664 8.85938 11.4097 8.85938H5.8125C5.45584 8.85938 5.16667 9.14272 5.16667 9.49219V10.7578C5.16667 11.1073 5.45584 11.3906 5.8125 11.3906H11.4097C11.7664 11.3906 12.0556 11.1073 12.0556 10.7578Z" fill="black"/>
</svg>
